<svg id="Layer_1" data-name="Layer 1" xmlns="http://www.w3.org/2000/svg" viewBox="0 0 785.12 385.46"><defs><style>.cls-1{fill:#f3500e;}</style></defs><title>title_v2</title><path class="cls-1" d="M1663,237.3l-22.07-1.2c-7.66,9.84-15.3,20-26.23,26.93-15.29,9.74-31.46,13.38-49.07,7.93-16.47-5.1-25.88-17.21-31.74-32.69-.6-1.59-1.07-3.24-1.66-4.84-.1-.28-.5-.44-1.41-1.18a90.92,90.92,0,0,1-38.82,8.16c-29.32,40.78-70,40.75-92.5,15.83-11.76,43.39-23.26,85.8-34.82,128.44-10.43,1-20.27.59-31.82.29,9.12-38.33,20.21-75.23,29.53-113.06-4.27-1.12-7.8.79-11.39,1.15-20.26,2.07-35.64-10.23-37.53-30.57-.85-9.24-.79-18.49,1.65-27.61q12.79-47.68,25.45-95.41a16.76,16.76,0,0,1,1.74-3.12,155.91,155.91,0,0,1,31.16.27l-14.12,53.16c-4.66,17.57-9.41,35.11-14,52.71-1.71,6.63-3.09,13.37-.2,20.21,6.5,3.72,10.65-.42,14.4-4.26,7.77-7.94,13.1-17.57,17.64-27.6,7.82-17.3,11-36,16.25-54.1,3.83-13.15,7.2-26.43,10.91-40.14,10.4-1.4,20.52-.81,30.22-.49,2.81,3.77-1.41,7.19,1.2,11,4.88-2.76,9.81-5.5,14.69-8.34a51.32,51.32,0,0,1,12.37-5c21.36-5.86,38.54,3,45.62,23.9,5.68,16.74,4.56,33.86,1.79,50.95-1,6.38-2.53,12.69-3.84,19.11,12.83-.1,23.6-8.48,27.29-21.93a141.29,141.29,0,0,1,13.43-33.26c9.65-16.82,22.64-29.73,41.34-36.8,30.93-11.68,66.07,5.38,69.41,45.94a161,161,0,0,1-.17,22.61c-.41,7.24-3.15,14-3.8,21.14,12.13,2.12,21.61-3.8,25.48-16.43,3.71-12.12,6.85-24.42,10.32-36.62,7.41-26.05,15.47-51.87,26.57-76.64,1.23-2.76,2-5.73,3-8.59-11.32-4.42-12.52-4.53-34.94-3.07-3.62-7.82-6-16.26-8.45-25.63,20.14-7.49,39.85-5,59.38.57,6.35-7.26,11.85-14.29,18.56-20.16,21-18.33,44.52-23,70.88-13.94,5.63,1.94,10,5.83,14.87,8.73,3.77-.62,6.14-3.35,9.17-4.89,22.1-11.23,44.41-12.37,65.63,1.11,24.63,15.64,24.39,51.23.34,67.77-17.69,12.16-37.27,12.52-57.42,9.23-8.49-1.39-16.48-4.52-24.2-7.42-4.68,1.49-5.34,5.59-6.83,8.88-15,32.89-25.37,67.28-33.53,102.41-1.61,6.95-4,13.73-6,20.42C1803,222,1833,220.47,1846.09,184.4a113.88,113.88,0,0,1,27.49,6.59c-10.12,32.45-30.41,51.16-65.58,51.5,1.43,11.17,4.41,21.32,4.81,31.9,1.09,29-3.51,56.75-17.24,82.64a62.73,62.73,0,0,1-15.16,19.34c-20.69,17.14-43.13,9.17-48.65-17.07a119,119,0,0,1-2.13-25.6,47.05,47.05,0,0,0-1-11.55c-3,8.41-5.72,17-9.26,25.17-5.48,12.72-12.48,24.5-24.5,32.33-17.49,11.4-35.07,5.62-42.19-13.92-4.07-11.19-4.12-22.9-3.85-34.6.63-28,7-55,14-81.92.87-3.31,1.58-6.65,2.37-10,.4-1,.77-2.07-.5-2.58C1664.34,236.48,1663.58,237.06,1663,237.3Zm42.53-25c22.17,10.59,49.69,2.87,55.7-25.23a579.06,579.06,0,0,1,26-86.52c1.29-3.34,3.62-6.76,2-11.68-13.12-1.45-26.11-5.19-39-10.09C1728.14,121.35,1718,166.92,1705.5,212.29Zm-91.64,6.57c-5-13.69-2.23-25.38,9.78-34.29a9.25,9.25,0,0,0,3.9-6.79,44.6,44.6,0,0,0-1.86-21.28c-4.3-11.93-14.55-16.5-26.38-11.95a39.17,39.17,0,0,0-11.26,7c-10.24,8.72-16.64,20-21,32.36-4.57,12.92-8.17,26.19-4.81,40.16,4.48,18.58,21,24.47,36.09,12.59C1604.49,231.83,1610,226.14,1613.86,218.86Zm-141.43-9.09c5.61-17.21,9.48-34.05,8.25-51.7-1.08-15.56-9.59-20.56-23.59-14a50.48,50.48,0,0,0-9.51,6,94.94,94.94,0,0,0-29.82,39.71c-3.67,9-7,18.37-7.59,29.43C1430.2,208.79,1451.05,209.21,1472.43,209.77ZM1764,353.59c19.07-16,26.56-80.17,12.4-103.18-3.84,10.65-6.09,21.22-8.6,31.7a325.66,325.66,0,0,0-8.46,50.66C1758.76,339.81,1758.11,347.11,1764,353.59Zm-68.51-103.82A487.14,487.14,0,0,0,1682.18,305c-2.06,11.5-4.19,23-3.78,34.74.16,4.71,0,9.7,4.79,12.65C1702,340.69,1709.87,274.86,1695.45,249.77ZM1851.77,54.84a57.9,57.9,0,0,0,30,5.76,32.42,32.42,0,0,0,13.56-4.27c4.8-2.68,7.68-6.76,7.6-12.42s-3.57-9.39-8.41-11.83a21,21,0,0,0-5.75-2C1874.14,27.48,1863,34,1853.47,44.2,1850.9,47,1851.07,50.39,1851.77,54.84ZM1732.61,296.6c3.09-18.65,9.15-36.55,12.92-55.9l-19.33,2.42C1732.48,261,1732.36,278.78,1732.61,296.6ZM1818.8,38c-7.71-9.54-18.82-10.9-31.72-3.49C1799,33.15,1807.92,38.37,1818.8,38ZM1428,243c9.67,5.57,16.06,4.67,23.36-2.83C1443.53,240.36,1435.82,238,1428,243Z" transform="translate(-1147.65 0)"/><path class="cls-1" d="M1147.65,251.15l22.87-19a50.31,50.31,0,0,0,39,9.42c13-2.09,23.76-8.65,32.9-17.89,6.8-6.88,12.12-14.88,16.9-23.27,7.36-12.92,12.25-26.88,16.15-41.07,10.64-38.68,20.73-77.5,31-116.27a9.92,9.92,0,0,0,0-2.27c-.69-.47-1.49-1.47-2.34-1.52-24-1.34-48-3.35-71.74,2.43-11.18,2.72-20.14,8.45-25.77,18.82-3.1,5.71-3.65,11.86-2.73,18,1.47,9.91,10,16.53,20.66,16.26a51,51,0,0,0,11.16-1.73c3.26-.83,6.36-2.34,10-3.73,5.32,7,9.59,14.68,14.44,23-12.19,9.87-25.82,14.72-41,13.8-44.73-2.7-59.62-45.77-42.16-80,11.72-23,32.16-34.07,56.36-38.87,28.28-5.61,56.8-2.54,85.24-1.07,38.8,2,77.56,3.19,116-4.65,2.28-.47,4.69-1.12,7.78.45-1.58,10.88-5.7,21.29-8.52,32.46-29.72,7.28-59.9,7.17-89.6,6.88-3.14,3-3.46,6.48-4.4,9.76-12.15,42.5-21.92,85.66-35.11,127.87-7.21,23-17.35,44.67-32.89,63.53-29.74,36.09-85.64,41.75-121.06,12C1150.08,253.94,1149.47,253.12,1147.65,251.15Z" transform="translate(-1147.65 0)"/><path class="cls-1" d="M1366.08,93.78a18.11,18.11,0,0,1-17.65-17.87c0-10.1,8.22-17.75,18.85-17.55,10.12.19,17.26,7.85,16.85,18.09A17.63,17.63,0,0,1,1366.08,93.78Z" transform="translate(-1147.65 0)"/><path class="cls-1" d="M1663,237.3c.61-.24,1.37-.82,1.82-.65a1.22,1.22,0,0,1,.88,1.11,4,4,0,0,1-.38,1.47Z" transform="translate(-1147.65 0)"/></svg>