<svg id="Layer_1" data-name="Layer 1" xmlns="http://www.w3.org/2000/svg" viewBox="0 0 835.74 356.05"><defs><style>.cls-1{isolation:isolate;}.cls-2{fill:#f8510e;}</style></defs><title>title_caps</title><g class="cls-1"><path class="cls-2" d="M130.28,145.35q-22.5-1.5-34.35-11.85T85.88,105.15A86.9,86.9,0,0,1,97.73,68.1a108.64,108.64,0,0,1,25.5-29.4,124.53,124.53,0,0,1,35.4-19.8,136.5,136.5,0,0,1,41.85-8.25,213.27,213.27,0,0,1,42,2.4q21.3,3.3,40.5,7.8t35.4,8.7a202.52,202.52,0,0,0,26.7,5.4,166.92,166.92,0,0,0,25.65,1.35q10-.45,15.75-1a38,38,0,0,1,7.8-.3q2.1.3,1.8,3.6a54.25,54.25,0,0,1-1.35,9.6,35.66,35.66,0,0,1-6.3,13.5q-4.95,6.9-14.55,12.75t-26.4,7.35a87.07,87.07,0,0,1-27-1.8,190.15,190.15,0,0,1-26.4-8.1q-13.2-5.1-26.4-11.25T241,49.35a180.41,180.41,0,0,0-27.3-8,98.34,98.34,0,0,0-28.2-1.65A71.48,71.48,0,0,0,169,42.6a61.13,61.13,0,0,0-16.65,7.5,44.48,44.48,0,0,0-12.75,12.45,27.69,27.69,0,0,0-4.5,17.7,13.7,13.7,0,0,0,4.8,10.8q4.8,4.2,15.6,5.1a52,52,0,0,0,18.6-2A65.7,65.7,0,0,0,189.53,87a182.49,182.49,0,0,0,15-10.65q7.65-6,16.95-12,4.5-3.6,11.1-1.65a27.58,27.58,0,0,1,12,7.5,35.08,35.08,0,0,1,8.1,13.8,24.79,24.79,0,0,1-.6,17q-7.8,21.9-17.25,47.55t-21.45,51a424.76,424.76,0,0,1-27,48.6,195.65,195.65,0,0,1-34.2,40.35,137.33,137.33,0,0,1-42.9,26.1q-23.7,9-53.1,6a64.64,64.64,0,0,1-25-7.8,58.12,58.12,0,0,1-20.25-18.3Q2.78,282.75.53,265.8t5-38.85a119.79,119.79,0,0,1,36.15-54.6A103.83,103.83,0,0,1,71,154.8a83.19,83.19,0,0,1,35-5.55q12.9.6,20.7,6.75a37.29,37.29,0,0,1,11.55,15.15,45.07,45.07,0,0,1,3.3,19.5,60.74,60.74,0,0,1-4.2,19.95,47.24,47.24,0,0,1-10.5,16.2,28.46,28.46,0,0,1-15.75,8.25q-10.8,1.5-13.8-3.3t.6-10.8q.3-.9,4.35-2.85a49.75,49.75,0,0,0,8.7-5.55,34.33,34.33,0,0,0,8.1-9.15q3.45-5.55,2.55-13.65-1.2-8.4-7.5-11.25t-15.15-1.2a64.07,64.07,0,0,0-18.75,7A85.49,85.49,0,0,0,61.73,198a80,80,0,0,0-14.4,18.75A50.37,50.37,0,0,0,40.88,239a43.57,43.57,0,0,0,1.95,12.3,45.66,45.66,0,0,0,5.85,12.45,34.08,34.08,0,0,0,9.9,9.75,25.29,25.29,0,0,0,14.1,3.9q24.3.3,43.65-11.7t35.25-34.35q15.9-22.35,29.1-54t25.5-71q-9.3,7.2-19.2,14.55a185.25,185.25,0,0,1-19.8,12.9,124.77,124.77,0,0,1-19.2,8.85A43.49,43.49,0,0,1,130.28,145.35Z" transform="translate(0.01 -10.46)"/><path class="cls-2" d="M259,164.85q3.3-3.9,10.5-3.15a33.87,33.87,0,0,1,13.65,4.5,25.06,25.06,0,0,1,9.75,9.9q3.3,6.15-.6,13.35-3.6,5.4-6.9,9.75t-6.3,8.7q-3,4.35-6.3,9.45t-6.9,11.7q-.3.9-2.85,5.85t-4.8,10.2a57.93,57.93,0,0,0-3.15,9q-.9,3.75,1.8,2.25,1.5-.9,3.9-2.55t5.1-3.9l5.4-4.5q2.7-2.25,4.8-4.05,9.3-9,15.15-15T302,215q5-5.4,10.5-11.55t14.55-15.75a4.45,4.45,0,0,1,3.15-1.5,5.29,5.29,0,0,1,3,.9,4.3,4.3,0,0,1,1.8,2.4,4.42,4.42,0,0,1-.45,3.3Q325,208.05,314,223.5t-23.25,29.85q-5.4,6.3-11.55,14.85A172.59,172.59,0,0,1,266,284.4a77.08,77.08,0,0,1-15.3,12.9A29.1,29.1,0,0,1,232.88,302q-10.5-.3-15-7.05t-4.8-17.85a73.74,73.74,0,0,1,1.2-15.9,162.17,162.17,0,0,1,4.05-17.1q2.55-8.7,6-17.4t7-16.5q6-11.7,12.3-22.5A239.3,239.3,0,0,1,259,164.85Zm28.8-49.5q7.8-13.2,17.85-18.3t17.55.3a15.49,15.49,0,0,1,6,7.05,24.86,24.86,0,0,1,2.1,10.35,45.28,45.28,0,0,1-1.8,12.15,56.06,56.06,0,0,1-5.4,12.75,48.12,48.12,0,0,1-8.25,10.8,42.18,42.18,0,0,1-9.45,7.05,20.3,20.3,0,0,1-9.6,2.55,14.94,14.94,0,0,1-8.7-2.7,15.51,15.51,0,0,1-5.7-7.35,28.46,28.46,0,0,1-1.8-10.35,43.69,43.69,0,0,1,1.8-12A51.22,51.22,0,0,1,287.78,115.35Z" transform="translate(0.01 -10.46)"/><path class="cls-2" d="M284.78,349.35q-3.9,6.3-8.7,5.4t-8.7-5.7a34,34,0,0,1-6-11.7q-2.1-6.9-.3-12.3l19.2-43.65q9.3-21.15,18.9-41.7t19.95-40.65q10.35-20.1,22.65-40.5c2.19-3,4.8-4.2,7.8-3.6a18.14,18.14,0,0,1,8.7,4.8,37.46,37.46,0,0,1,7.35,9.75,27.47,27.47,0,0,1,3.45,11.55,10.35,10.35,0,0,0,1.5-1.2,70.64,70.64,0,0,1,13.5-12.6q6.89-4.8,13.8-4.8,31.19,0,31.2,32.1-.31,10.5-6,23.4-2.41,5.1-5.4,10.5,12.29-10.2,23.7-21t23.7-21.3a5.57,5.57,0,0,1,3.6-1.05,4.09,4.09,0,0,1,2.85,1.35,6.1,6.1,0,0,1,1.35,3,3.71,3.71,0,0,1-1.2,3.3q-8.71,9-19.5,20.25T429.53,236q-11.86,11.7-24.3,22.95t-24.6,20.25a197.66,197.66,0,0,1-23.55,15.15q-11.41,6.15-20.7,7.35-2.42.3-3-.3a8.57,8.57,0,0,1-3.9-.9q-10.8-3.9-13.2-13.2a9.32,9.32,0,0,1-.6-1.5q-3.6,7.5-8.55,17.55T297.68,323q-4.5,9.6-8.1,17.1A103.92,103.92,0,0,1,284.78,349.35Zm44.1-84.6a7.21,7.21,0,0,0,4.8,2.25c2.19.3,5.25-.85,9.15-3.45a94.71,94.71,0,0,0,12.6-10.35,182.17,182.17,0,0,0,13.65-14.7q6.89-8.25,12.75-16.8A184.83,184.83,0,0,0,392,205.05a64.33,64.33,0,0,0,5.85-14.1c1.2-6.2.09-9.3-3.3-9.3q-6.61-.9-15.15,7a150.74,150.74,0,0,0-17.55,20q-9,12-17.7,25.8-5.12,8.4-10.8,18.45T328.88,264.75Z" transform="translate(0.01 -10.46)"/><path class="cls-2" d="M681.07,178.65a8.58,8.58,0,0,1,4.5-1.5,4,4,0,0,1,3.15,1.2,3.87,3.87,0,0,1,.6,3.45,11.16,11.16,0,0,1-2.85,4.95,412.76,412.76,0,0,1-41.85,41.85A179.23,179.23,0,0,1,599.77,257a217.34,217.34,0,0,1-26.25,25.5,187.2,187.2,0,0,1-28.8,19.5,133.52,133.52,0,0,1-30.45,12.15,101.74,101.74,0,0,1-31.5,3.15,72.37,72.37,0,0,1-17.4-3.3,44.55,44.55,0,0,1-15.3-8.55,47.69,47.69,0,0,1-11.7-15.6q-4.8-9.75-6.3-24.45a180.8,180.8,0,0,1,.15-36.75q1.95-19.35,9.45-42.45a132.76,132.76,0,0,1,2.7-42.45,166.35,166.35,0,0,1,15-40.95,193.86,193.86,0,0,1,24.9-36.6,170.24,170.24,0,0,1,32.55-29.4,151.77,151.77,0,0,1,37.95-19,117.58,117.58,0,0,1,41.1-6.15q18.3.6,32.1,7.35a69.8,69.8,0,0,1,22.95,17.55,73.88,73.88,0,0,1,13.8,24.9,94.22,94.22,0,0,1,4.65,29.7,164.33,164.33,0,0,1-2.7,32.1,229.15,229.15,0,0,1-8.85,33.9,298.79,298.79,0,0,1-14.1,34A289.38,289.38,0,0,1,625,224a227.55,227.55,0,0,0,27.3-19.65Q665.77,193.05,681.07,178.65Zm-180,105.6a67.2,67.2,0,0,0,18.75-4.35,103.59,103.59,0,0,0,20.55-10.65,137,137,0,0,1-31.05-2.85,93.4,93.4,0,0,1-27.75-10.65q-.3,13.2,4.2,21.15T501.07,284.25Zm34.2-164.7q-5.7,5.4-12.9,17.1a271.23,271.23,0,0,0-14.25,26.7,340.47,340.47,0,0,0-13.05,32.1,308.79,308.79,0,0,0-9.6,32.7q18,20.4,61.8,19.2,6-.3,11.85-.75A80.15,80.15,0,0,0,570.37,245a240.18,240.18,0,0,0,21.45-24,266.51,266.51,0,0,0,19.2-28A234.42,234.42,0,0,0,626.47,162,212.73,212.73,0,0,0,637,129.15q17.4-72.3-38.7-73.5A65.05,65.05,0,0,0,576.52,59a115.64,115.64,0,0,0-22.65,10.2,167,167,0,0,0-22.5,15.75,185.68,185.68,0,0,0-20.7,19.95,103.7,103.7,0,0,1,12.75,1.35,34.22,34.22,0,0,1,9.9,3q3.75,2,4.65,4.65T535.27,119.55Z" transform="translate(0.01 -10.46)"/><path class="cls-2" d="M599.77,359v-.3a22.53,22.53,0,0,1-2.85-6.6,37.05,37.05,0,0,1-1.2-8.25,35.26,35.26,0,0,1,.9-9,34.27,34.27,0,0,1,3.15-8.55q15.6-29.1,29-56.85t26.25-55q12.9-27.3,26.55-54.45T712,104.85q3-5.7,9-4t11.55,7.35a42.5,42.5,0,0,1,8.85,13.8q3.3,8.1,1.5,15-13.5,22.2-30.15,50.1T679,244.35q12.3-1.5,28.5-11.1t36-33a11.25,11.25,0,0,1,4.8.45,11.85,11.85,0,0,1,3.9,2,4,4,0,0,1,1.65,2.7,2.94,2.94,0,0,1-1.65,2.7,136,136,0,0,1-15.75,21.3,128.9,128.9,0,0,1-19.8,18,97.32,97.32,0,0,1-22.2,12.3,49.76,49.76,0,0,1-22.35,3.6,37.87,37.87,0,0,1,8.55,23.85,66,66,0,0,1-5.4,26.55,101,101,0,0,1-15.3,25.05,97.38,97.38,0,0,1-20.4,19.05q-10.65,7.2-21.15,8.55T601,360.15l-.9-.9A.27.27,0,0,0,599.77,359Zm30.3-27.3a33.77,33.77,0,0,0,13.95-7.2,40.85,40.85,0,0,0,9.45-12,47.1,47.1,0,0,0,4.8-15,42.44,42.44,0,0,0-.6-15.9q-7.8,13.5-14.7,26.1T630.07,331.65Z" transform="translate(0.01 -10.46)"/><path class="cls-2" d="M681.67,359v-.3a22.27,22.27,0,0,1-2.85-6.6,36.48,36.48,0,0,1-1.2-8.25,35.26,35.26,0,0,1,.9-9,33.5,33.5,0,0,1,3.15-8.55q15.6-29.1,29-56.85t26.25-55q12.9-27.3,26.55-54.45t30.45-55.05q3-5.7,9-4t11.55,7.35a42.5,42.5,0,0,1,8.85,13.8q3.3,8.1,1.5,15-13.5,22.2-30.15,50.1t-33.75,57.3q12.3-1.5,28.5-11.1t36-33a11.25,11.25,0,0,1,4.8.45,11.85,11.85,0,0,1,3.9,2,4,4,0,0,1,1.65,2.7,2.94,2.94,0,0,1-1.65,2.7,136,136,0,0,1-15.75,21.3,128.9,128.9,0,0,1-19.8,18,97.32,97.32,0,0,1-22.2,12.3,49.76,49.76,0,0,1-22.35,3.6,37.87,37.87,0,0,1,8.55,23.85,66,66,0,0,1-5.4,26.55,101,101,0,0,1-15.3,25.05,97.38,97.38,0,0,1-20.4,19.05q-10.65,7.2-21.15,8.55t-17.4-6.15l-.9-.9A.27.27,0,0,0,681.67,359Zm30.3-27.3a33.77,33.77,0,0,0,13.95-7.2,40.85,40.85,0,0,0,9.45-12,47.1,47.1,0,0,0,4.8-15,42.44,42.44,0,0,0-.6-15.9q-7.8,13.5-14.7,26.1T712,331.65Z" transform="translate(0.01 -10.46)"/></g></svg>