<svg id="Layer_1" data-name="Layer 1" xmlns="http://www.w3.org/2000/svg" viewBox="0 0 232.94 212.85"><defs><style>.cls-1{fill:#f8510e;}</style></defs><title>title_to</title><path class="cls-1" d="M1539-4.9c-2.61,1.2-3.75.66-3.45-1.64a28,28,0,0,1,3.3-8.86,62.65,62.65,0,0,1,7.35-10.8c3-3.59,6-6,9-7.2q10.49-.59,21-1.5t21.3-1.5A181.14,181.14,0,0,1,1614-56.5c1.6-1.59,3.94-2.19,7-1.79a23.78,23.78,0,0,1,9.15,3.29,25.46,25.46,0,0,1,7.8,7.5,16.7,16.7,0,0,1,3,10.5,195.54,195.54,0,0,1,36.3,4.5,5.85,5.85,0,0,1,3.45,2.1,4.16,4.16,0,0,1,.75,3.15,5.6,5.6,0,0,1-1.65,3,5.08,5.08,0,0,1-3.75,1.35q-20.42,0-42.9,1.8-6.92,10.8-16,25.35t-18.15,29q-9,14.38-16.65,27.14T1570.83,80.6q-.3.62-2.1,3.9c-1.2,2.21-2.66,4.76-4.35,7.65s-3.41,6-5.1,9.31-3.11,6.29-4.2,9a39.46,39.46,0,0,0-2.1,6.14c-.3,1.41.24,1.8,1.65,1.2.79-.59,2.4-2,4.8-4.2s5-4.64,7.65-7.35,5.34-5.29,8-7.79,4.5-4.36,5.7-5.56q9.29-9,15.15-15t10.8-11.4q5-5.4,10.5-11.54t14.55-15.75a4.43,4.43,0,0,1,3.15-1.5,5.31,5.31,0,0,1,3,.89,4.17,4.17,0,0,1,1.35,5.7q-9.62,15.3-20.55,30.75t-23,29.85q-5.4,6.3-11.7,14.85A193.64,193.64,0,0,1,1570.68,136a77.31,77.31,0,0,1-15.3,12.89,29.06,29.06,0,0,1-17.85,4.65q-10.21-.28-16.5-6.6t-6.9-17.1a85.15,85.15,0,0,1,4.8-30.9q5.4-15.89,17.1-37.19,3.29-6,8.4-14.86t11.4-19.2q6.3-10.35,13.2-21.44t14.1-21.61Q1556.73-11.18,1539-4.9Z" transform="translate(-1514.07 58.41)"/><path class="cls-1" d="M1734.92,46.1a9.37,9.37,0,0,1,4.36-2,8.36,8.36,0,0,1,4.5.31,5.81,5.81,0,0,1,2.85,2.09q.88,1.37-.3,3.45-13.5,29.11-31.36,45.9t-35.84,22.81q-13.22,16.8-29,26.54t-30.75,9.16q-8.7,0-14.09-3.91a30,30,0,0,1-8.55-9.29,32,32,0,0,1-4.06-11.71,45.26,45.26,0,0,1-.3-11.4,105.7,105.7,0,0,1,7.8-25,138.52,138.52,0,0,1,14.41-24.75A80,80,0,0,1,1623.47,49,95.24,95.24,0,0,1,1638,30.65a88.36,88.36,0,0,1,18.14-13.8,45.92,45.92,0,0,1,20.25-6.14q16.8,0,24.16,7.5a30.83,30.83,0,0,1,8.55,18.89q1.18,11.42-2.55,25a175.25,175.25,0,0,1-9.16,25.65,8.56,8.56,0,0,0-.89,1.66c-.21.5-.41,1-.61,1.64A128.46,128.46,0,0,0,1714.08,73Q1723.53,61.71,1734.92,46.1Zm-101.7,79.2q5.1.32,11.7-3.9a39.16,39.16,0,0,1-17.7-8.4c-.8,3.6-.7,6.56.31,8.85S1630.42,125.3,1633.22,125.3Zm44.41-75q-11.42,4.22-21.75,15A140.17,140.17,0,0,0,1638,88.1a33.47,33.47,0,0,0,5.69,3.61q3,1.5,6.31,3a39.25,39.25,0,0,0,8.1,3.59,54.15,54.15,0,0,0,7.5,1.8,151.63,151.63,0,0,0,13.2-22.35A111.84,111.84,0,0,0,1686.92,56a32,32,0,0,0,1-9.29,20.89,20.89,0,0,0-2.09-8.71,13.91,13.91,0,0,0-6.46-6.15q-4.5-2.25-12-1.35-3,.62-5.09,1.21a32.7,32.7,0,0,1,6.59,3.75,31.83,31.83,0,0,1,6,5.39,21.73,21.73,0,0,1,3.46,5.4C1679.07,48,1678.83,49.31,1677.63,50.3Z" transform="translate(-1514.07 58.41)"/></svg>